<?xml version="1.0" standalone="no"?>
<!DOCTYPE svg PUBLIC "-//W3C//DTD SVG 20010904//EN"
 "http://www.w3.org/TR/2001/REC-SVG-20010904/DTD/svg10.dtd">
<svg version="1.0" xmlns="http://www.w3.org/2000/svg"
 width="96.000000pt" height="96.000000pt" viewBox="0 0 96.000000 96.000000"
 preserveAspectRatio="xMidYMid meet">

<g transform="translate(0.000000,96.000000) scale(0.100000,-0.100000)"
fill="#000000" stroke="none">
<path d="M619 893 c-70 -69 -82 -91 -94 -177 -6 -44 -15 -57 -105 -152 -159
-167 -197 -268 -166 -434 9 -46 14 -85 12 -87 -2 -2 -20 2 -39 11 -76 31 -87
122 -31 256 43 106 51 154 31 202 -17 41 -55 56 -100 39 -29 -11 -52 -54 -42
-79 8 -20 29 -9 35 19 7 28 57 40 71 17 19 -29 8 -98 -27 -180 -63 -143 -50
-252 36 -303 33 -19 51 -20 315 -20 l280 0 3 37 c4 42 -24 78 -58 78 -19 0
-20 7 -20 108 0 69 -7 139 -20 196 -23 103 -26 175 -7 198 7 9 34 18 68 21 31
3 66 11 77 18 22 14 42 50 42 76 0 18 -121 143 -139 143 -6 0 -13 12 -17 28
-15 69 -18 69 -105 -15z m71 -8 c0 -9 -20 -37 -44 -63 -24 -26 -46 -60 -49
-77 -3 -16 -8 -47 -12 -67 -5 -30 -28 -63 -110 -153 -71 -79 -114 -137 -136
-182 -30 -64 -31 -70 -26 -162 3 -53 9 -106 12 -118 4 -13 3 -23 -2 -23 -15 0
-38 116 -38 190 0 100 40 174 163 302 105 110 105 110 121 201 9 48 19 68 58
112 51 57 63 65 63 40z"/>
</g>
</svg>
