<?xml version="1.0" standalone="no"?>
<!DOCTYPE svg PUBLIC "-//W3C//DTD SVG 20010904//EN"
 "http://www.w3.org/TR/2001/REC-SVG-20010904/DTD/svg10.dtd">
<svg version="1.0" xmlns="http://www.w3.org/2000/svg"
 width="96.000000pt" height="96.000000pt" viewBox="0 0 96.000000 96.000000"
 preserveAspectRatio="xMidYMid meet">

<g transform="translate(0.000000,96.000000) scale(0.100000,-0.100000)"
fill="#000000" stroke="none">
<path d="M336 891 c-21 -23 -45 -86 -46 -119 l0 -24 -31 26 c-33 28 -86 35
-107 14 -7 -7 -12 -23 -12 -36 0 -13 -9 -35 -20 -49 -11 -14 -20 -32 -20 -40
0 -8 -12 -29 -26 -46 -18 -21 -23 -37 -19 -51 8 -24 8 -37 -1 -87 -5 -33 -2
-39 44 -80 45 -41 48 -47 36 -64 -38 -52 12 -197 57 -169 14 8 29 -14 29 -43
0 -26 27 -43 68 -43 16 0 35 -7 42 -15 30 -36 127 -1 144 53 l11 33 23 -31
c13 -17 38 -38 57 -47 31 -15 36 -15 59 1 14 9 26 21 26 27 0 6 14 7 36 3 39
-7 54 4 54 41 0 14 10 25 30 32 24 9 30 17 30 42 0 21 5 31 15 31 25 0 28 45
6 89 -12 22 -17 41 -13 41 5 0 30 18 56 41 40 36 46 46 46 81 0 22 -7 46 -16
55 -8 9 -13 21 -10 28 2 7 -4 21 -14 30 -12 11 -21 38 -26 71 -11 92 -77 119
-153 65 -16 -12 -32 -21 -35 -21 -3 0 -6 19 -6 43 0 92 -36 153 -66 112 -12
-16 -14 -17 -20 -2 -8 22 -23 21 -46 0 -18 -16 -19 -15 -34 5 -18 26 -31 28
-56 5 -17 -15 -19 -15 -36 0 -24 22 -35 21 -56 -2z"/>
</g>
</svg>
