<?xml version="1.0" standalone="no"?>
<!DOCTYPE svg PUBLIC "-//W3C//DTD SVG 20010904//EN"
 "http://www.w3.org/TR/2001/REC-SVG-20010904/DTD/svg10.dtd">
<svg version="1.0" xmlns="http://www.w3.org/2000/svg"
 width="200.000000pt" height="200.000000pt" viewBox="0 0 200.000000 200.000000"
 preserveAspectRatio="xMidYMid meet">

<g transform="translate(0.000000,200.000000) scale(0.100000,-0.100000)"
fill="#000000" stroke="none">
<path d="M1236 1684 c-72 -23 -155 -108 -185 -194 -30 -83 -77 -157 -125 -195
-145 -117 -223 -223 -351 -478 -42 -84 -93 -180 -112 -214 l-36 -61 -114 -32
c-128 -37 -131 -41 -91 -120 29 -56 77 -81 167 -88 l67 -4 43 71 43 71 203 0
202 0 15 -55 c15 -53 15 -55 -6 -69 -34 -23 -9 -38 39 -25 34 10 129 8 199 -3
10 -2 21 2 23 9 7 20 -37 35 -123 41 l-82 5 -12 45 c-6 24 -10 46 -8 47 2 2
28 5 58 6 46 3 55 0 58 -15 2 -10 -5 -24 -15 -31 -30 -23 -5 -37 42 -24 34 10
129 8 199 -3 10 -2 21 2 23 9 7 20 -38 35 -124 41 -70 4 -83 7 -83 22 0 12 11
20 34 24 124 23 310 176 373 307 67 136 79 292 35 424 -18 53 -19 61 -5 82 12
17 25 23 54 23 48 0 50 12 9 68 -16 23 -30 50 -30 60 0 58 -34 127 -89 183
-85 84 -180 108 -295 73z m154 -34 c64 -18 123 -63 151 -116 36 -66 46 -114
24 -114 -8 0 -19 -8 -22 -17 -4 -10 -15 -24 -25 -31 -24 -18 -20 -53 8 -67 17
-8 19 -14 11 -32 -7 -15 -4 -39 12 -85 46 -140 34 -277 -35 -408 -46 -88 -156
-195 -245 -239 -110 -54 -169 -61 -517 -61 l-314 0 27 48 c15 26 33 53 40 60
7 8 76 27 154 43 180 38 354 90 454 136 116 54 174 126 184 228 6 60 -3 125
-18 125 -6 0 -7 -24 -3 -62 6 -72 -10 -130 -52 -186 l-26 -34 -31 54 c-60 106
-209 216 -315 233 -68 12 -68 13 -21 61 105 109 227 122 348 39 56 -38 80 -31
28 9 -51 39 -118 66 -164 66 -24 0 -43 2 -43 5 0 3 13 24 30 46 16 23 39 67
50 98 45 119 86 164 179 197 44 16 84 17 131 4z"/>
<path d="M1337 1502 c-22 -24 -21 -65 1 -85 40 -36 102 -9 102 45 0 51 -69 78
-103 40z"/>
<path d="M1240 1166 c0 -15 18 -31 26 -23 7 7 -7 37 -17 37 -5 0 -9 -6 -9 -14z"/>
</g>
</svg>
