<?xml version="1.0" standalone="no"?>
<!DOCTYPE svg PUBLIC "-//W3C//DTD SVG 20010904//EN"
 "http://www.w3.org/TR/2001/REC-SVG-20010904/DTD/svg10.dtd">
<svg version="1.0" xmlns="http://www.w3.org/2000/svg"
 width="128.000000pt" height="128.000000pt" viewBox="0 0 128.000000 128.000000"
 preserveAspectRatio="xMidYMid meet">

<g transform="translate(0.000000,128.000000) scale(0.100000,-0.100000)"
fill="#000000" stroke="none">
<path d="M405 1150 c-37 -38 -64 -55 -102 -66 -79 -23 -92 -38 -101 -115 -6
-51 -15 -76 -40 -109 -42 -58 -41 -92 3 -154 25 -36 35 -60 35 -88 0 -21 6
-54 14 -72 12 -28 24 -37 76 -55 45 -15 78 -35 116 -71 41 -39 60 -50 86 -50
l32 0 -49 50 c-33 33 -64 54 -90 61 -89 24 -115 57 -115 145 0 20 -13 51 -35
83 -19 28 -35 63 -35 78 0 16 15 49 35 77 26 37 35 44 35 29 0 -11 -9 -32 -21
-47 -20 -25 -23 -59 -6 -60 11 -1 55 81 61 115 4 16 14 29 27 32 26 7 19 33
-7 29 -10 -2 -28 -11 -38 -20 -18 -16 -19 -16 -13 31 10 71 20 83 95 111 47
18 82 40 112 71 l44 45 -35 0 c-29 0 -44 -9 -84 -50z"/>
<path d="M660 1055 c0 -15 83 -28 126 -19 21 4 34 1 43 -10 8 -9 17 -16 22
-16 15 0 10 26 -8 42 -23 21 -183 23 -183 3z"/>
<path d="M560 912 c0 -28 35 -55 72 -56 47 -1 50 17 6 28 -22 6 -40 17 -44 28
-7 24 -34 23 -34 0z"/>
<path d="M934 779 c-43 -45 -59 -51 -102 -39 -44 12 -172 -7 -172 -26 0 -8 35
-11 122 -10 l122 1 38 39 c36 37 49 66 30 66 -5 0 -21 -14 -38 -31z"/>
<path d="M376 765 c-3 -9 -6 -25 -6 -36 0 -11 -11 -24 -25 -31 -14 -6 -25 -15
-25 -19 0 -30 68 -8 75 25 10 43 10 69 -1 73 -6 2 -14 -3 -18 -12z"/>
<path d="M470 758 c0 -15 75 -60 84 -51 12 13 5 24 -26 43 -38 23 -58 25 -58
8z"/>
<path d="M426 688 c-18 -66 -23 -74 -66 -94 -41 -19 -61 -44 -35 -44 30 1 84
22 99 39 22 24 33 96 17 105 -6 4 -13 1 -15 -6z"/>
<path d="M470 680 c0 -6 9 -18 20 -28 25 -21 180 -27 180 -7 0 17 -76 34 -121
28 -21 -3 -40 0 -43 6 -9 14 -36 14 -36 1z"/>
</g>
</svg>
